<?xml version="1.0" encoding="UTF-8" standalone="no"?>
<svg
   style="color: white"
   viewBox="0 0 256 256"
   version="1.1"
   id="svg1788"
   sodipodi:docname="ping-estande-map.svg"
   xml:space="preserve"
   inkscape:version="1.2.2 (b0a8486541, 2022-12-01)"
   xmlns:inkscape="http://www.inkscape.org/namespaces/inkscape"
   xmlns:sodipodi="http://sodipodi.sourceforge.net/DTD/sodipodi-0.dtd"
   xmlns="http://www.w3.org/2000/svg"
   xmlns:svg="http://www.w3.org/2000/svg"><defs
     id="defs1792" /><sodipodi:namedview
     id="namedview1790"
     pagecolor="#ffffff"
     bordercolor="#666666"
     borderopacity="1.0"
     inkscape:showpageshadow="2"
     inkscape:pageopacity="0.0"
     inkscape:pagecheckerboard="0"
     inkscape:deskcolor="#d1d1d1"
     showgrid="false"
     inkscape:zoom="1.1642403"
     inkscape:cx="304.06094"
     inkscape:cy="66.137549"
     inkscape:window-width="1920"
     inkscape:window-height="1021"
     inkscape:window-x="0"
     inkscape:window-y="28"
     inkscape:window-maximized="1"
     inkscape:current-layer="svg1788" /><rect
     width="256"
     height="256"
     fill="none"
     id="rect1782" /><circle
     cx="128"
     cy="104"
     r="32"
     fill="none"
     stroke="#000"
     stroke-linecap="round"
     stroke-linejoin="round"
     stroke-width="8"
     id="circle1784" /><path
     d="m 205.82185,101.09752 c 0,72 -80,128 -80,128 0,0 -80.000002,-56 -80.000002,-128 a 80,80 0 0 1 160.000002,0 z"
     fill="#ffffff"
     stroke="#000000"
     stroke-linecap="round"
     stroke-linejoin="round"
     stroke-width="8"
     id="path1786" /><g
     id="g3184"
     transform="matrix(0.25537363,0,0,0.25537363,60.290549,40.420163)"
     style="fill:#1ed688;fill-opacity:1;stroke:#000000;stroke-width:11.7475;stroke-dasharray:none;stroke-opacity:1">
	<g
   id="g3174"
   style="fill:#1ed688;fill-opacity:1;stroke:#000000;stroke-width:11.7475;stroke-dasharray:none;stroke-opacity:1">
		<path
   d="m 337.118,269.871 c 25.13,19.968 45.376,48.935 57.969,83.351 66.033,-3.371 112.442,-19.337 112.442,-19.337 0,-61.853 -25.654,-116.077 -64.162,-146.426 -16.932,20.482 -42.531,33.537 -71.18,33.537 -8.823,0 -17.355,-1.242 -25.436,-3.554 0.387,3.415 0.593,6.884 0.593,10.402 0.001,15.155 -3.693,29.446 -10.226,42.027 z"
   id="path3170"
   style="fill:#1ed688;fill-opacity:1;stroke:#000000;stroke-width:11.7475;stroke-dasharray:none;stroke-opacity:1" />
		<path
   d="m 174.883,269.871 c -6.532,-12.581 -10.227,-26.872 -10.227,-42.027 0,-3.51 0.205,-6.971 0.59,-10.378 -7.717,2.093 -15.833,3.218 -24.213,3.218 -28.649,0 -54.25,-13.055 -71.181,-33.537 C 31.344,217.495 5.69,271.719 5.69,333.572 c 0,0 44.998,16.175 111.316,19.4 12.599,-34.306 32.808,-63.181 57.877,-83.101 z"
   id="path3172"
   style="fill:#1ed688;fill-opacity:1;stroke:#000000;stroke-width:11.7475;stroke-dasharray:none;stroke-opacity:1" />
	</g>
	<path
   d="m 391.343,433.041 c 0,-61.853 -25.654,-116.077 -64.162,-146.426 -16.932,20.482 -42.531,33.537 -71.18,33.537 -28.649,0 -54.25,-13.055 -71.181,-33.537 -38.508,30.349 -64.163,84.573 -64.163,146.426 0,0 55.51,19.959 134.096,19.959 78.586,0 136.59,-19.959 136.59,-19.959 z"
   id="path3176"
   style="fill:#1ed688;fill-opacity:1;stroke:#000000;stroke-width:11.7475;stroke-dasharray:none;stroke-opacity:1" />
	<circle
   cx="256.00101"
   cy="227.84399"
   r="74.844002"
   id="circle3178"
   style="fill:#1ed688;fill-opacity:1;stroke:#000000;stroke-width:11.7475;stroke-dasharray:none;stroke-opacity:1" />
	<path
   d="m 372.188,53.844 c -41.336,0 -74.845,33.508 -74.845,74.844 0,6.554 0.849,12.909 2.431,18.967 19.537,10.687 34.737,28.307 42.3,49.551 9.217,4.057 19.397,6.325 30.114,6.325 41.334,0 74.844,-33.508 74.844,-74.844 0,-41.336 -33.51,-74.843 -74.844,-74.843 z"
   id="path3180"
   style="fill:#1ed688;fill-opacity:1;stroke:#000000;stroke-width:11.7475;stroke-dasharray:none;stroke-opacity:1" />
	<path
   d="m 213.452,147.323 c 1.579,-6.053 2.425,-12.401 2.425,-18.948 0,-41.336 -33.51,-74.844 -74.844,-74.844 -41.336,0 -74.845,33.508 -74.845,74.844 0,41.336 33.509,74.844 74.845,74.844 10.484,0 20.461,-2.164 29.52,-6.057 7.647,-21.446 23.079,-39.194 42.899,-49.839 z"
   id="path3182"
   style="fill:#1ed688;fill-opacity:1;stroke:#000000;stroke-width:11.7475;stroke-dasharray:none;stroke-opacity:1" />
</g></svg>
